# xmcd CD database file
#
# Track frame offsets:
#	150
#	19810
#	36557
#	56155
#
# Disc length: 970 seconds
#
# Revision: 0
# Processed by: cddbd v1.5PL3 Copyright (c) Steve Scherf et al.
# Submitted via: CDex 1.50
#
DISCID=3403c804
DTITLE=山本正之 - おくすり百貨店
DYEAR=2000
DGENRE=JPop
TTITLE0=おくすり百貨店
TTITLE1=大不況行進曲
TTITLE2=おくすり百貨店(カラオケ)
TTITLE3=大不況行進曲(カラオケ)
EXTD=YEAR: 2000
EXTT0=
EXTT1=
EXTT2=
EXTT3=
PLAYORDER=
